<?xml version="1.0" encoding="utf-8"?>
<!-- Generator: Adobe Illustrator 25.4.1, SVG Export Plug-In . SVG Version: 6.00 Build 0)  -->
<svg version="1.1" xmlns="http://www.w3.org/2000/svg" xmlns:xlink="http://www.w3.org/1999/xlink" x="0px" y="0px"
	 viewBox="0 0 75 100" style="enable-background:new 0 0 75 100;" xml:space="preserve">
<style type="text/css">
	.st0{fill:#006FE7;stroke:#323232;stroke-miterlimit:10;}
</style>
<g id="圖層_1">
</g>
<g id="location">
	<path id="pin_00000052089082079509840810000015708022367445742216_" class="st0" d="M37.5,4.1C19.2,4.1,4.4,18.9,4.4,37.2
		c0,5.6,1.4,10.9,3.9,15.6l0.1,0.2l1.6,2.7l0,0l22.4,37.4c2.3,3.8,7.7,3.8,10,0l22.4-37.4l0,0l1.8-3c2.5-4.6,3.9-9.9,3.9-15.5
		C70.6,18.9,55.8,4.1,37.5,4.1 M37.3,58.1c-11.2,0-20.2-9.1-20.2-20.2c0-11.6,9.8-20.9,21.5-20.2c10.1,0.6,18.3,8.8,18.9,18.9
		C58.2,48.3,48.9,58.1,37.3,58.1"/>
</g>
</svg>
