<?xml version="1.0" encoding="utf-8"?>
<!-- Generator: Adobe Illustrator 25.4.1, SVG Export Plug-In . SVG Version: 6.00 Build 0)  -->
<svg version="1.1" xmlns="http://www.w3.org/2000/svg" xmlns:xlink="http://www.w3.org/1999/xlink" x="0px" y="0px"
	 viewBox="0 0 1600 1600" style="enable-background:new 0 0 1600 1600;" xml:space="preserve">
<style type="text/css">
	.st0{fill:#FFFFFF;stroke:#323232;stroke-miterlimit:10;}
	.st1{fill:#ED7C6B;stroke:#323232;stroke-miterlimit:10;}
	.st2{fill:#EA6358;stroke:#323232;stroke-miterlimit:10;}
	.st3{fill:#EEEEEF;stroke:#323232;stroke-miterlimit:10;}
	.st4{fill:#4584FF;stroke:#323232;stroke-miterlimit:10;}
	.st5{fill:#B49D16;stroke:#323232;stroke-miterlimit:10;}
	.st6{fill:#D57BAE;stroke:#323232;stroke-miterlimit:10;}
	.st7{fill:#F7F7F7;stroke:#323232;stroke-miterlimit:10;}
	.st8{fill:#B4B4B5;stroke:#323232;stroke-miterlimit:10;}
	.st9{fill:#83C8A7;stroke:#323232;stroke-miterlimit:10;}
</style>
<g id="character">
</g>
<g id="book">
	<g id="book_00000085219252426076389640000017534987839872341154_">
		<polygon class="st0" points="850.1,93.1 741.9,117.6 740,155.3 765.4,185.7 		"/>
		<polygon class="st1" points="868.3,94.9 768.4,189.3 634.1,28.4 631.9,33.8 768.4,196.4 869.6,99.1 		"/>
		<polygon class="st1" points="631.9,33.8 489.3,96.2 491.2,91 634.1,28.4 		"/>
		<polygon class="st2" points="610.4,218.6 768.4,196.4 631.9,33.9 489.3,96.2 		"/>
		<path class="st3" d="M765.4,185.7l94.1-87.8c0,0-9.4-1.2-9.4-4.8c0,0-23.6,20.5-41.9,23.6c-18.3,3.1-39.8,10.6-45.3,49.1
			l-1.4,15.1c0,0,3.3-18-3.2-37c-6.5-19-26.7-39.8-48.4-53c0,0-39.3-31.3-58.5-54.4h-10.4L765.4,185.7z"/>
		<polygon class="st2" points="868.3,94.9 855.9,97.2 859.5,97.9 765.4,185.7 768.4,189.3 		"/>
	</g>
	<g id="book_00000013166694294749418990000017184981134592007840_">
		<polygon class="st0" points="915.8,1252.3 811.2,1353.2 834.6,1396.6 883.8,1413.5 		"/>
		<polygon class="st4" points="937.4,1241.9 889.6,1415.5 629.9,1326.3 631,1334 894.4,1423.4 941.7,1245.7 		"/>
		<polygon class="st4" points="631,1334 513.5,1500.6 512.2,1493.6 629.9,1326.3 		"/>
		<polygon class="st4" points="732.3,1555.6 894.4,1423.4 631.1,1334 513.5,1500.6 		"/>
		<path class="st3" d="M883.8,1413.5l45.8-162.2c0,0-11.3,5-13.8,1c0,0-12.6,39-30.9,54.9c-18.4,15.9-37.3,38.9-17.4,85.8l8.7,17.9
			c0,0-8.5-22.4-28.7-39.4c-20.2-16.9-57-26.4-90.2-26.5c0,0-65.3-8.4-102.6-21.3l-11.7,7.1L883.8,1413.5z"/>
		<polygon class="st4" points="937.4,1241.9 925.1,1252.9 929.6,1251.3 883.8,1413.5 889.6,1415.5 		"/>
	</g>
	<g id="book_00000182488703248425738630000013690638345978703023_">
		<path class="st0" d="M464.8,319.6l19.2,56.4l-196.2-33.5l36.2-54.2c0,0,51.2-2.2,78.3,12.1C429.4,314.7,464.8,319.6,464.8,319.6"
			/>
		<path class="st0" d="M265,158.5h-66.6l89.5,183.9l36.2-54.2c0,0,0-26.6-21.1-62.8C281.9,189.4,265,158.5,265,158.5"/>
		<path class="st5" d="M169.3,162.4l-2,4l95.1,177.5l-5.1,2.5c0,0,4.5,13.5,31.9,26.2l3.1-5.6l203.5,47.1l-1.4-3.4L288.7,363
			l-0.8-20.6l-19.5,4.2l-97-180.4L169.3,162.4z"/>
		<path class="st3" d="M198.4,158.5l-27,7.7l97,180.5l19.5-4.2c0,0-1.8-35.3-25.1-71.8C239.4,234.1,198.4,158.5,198.4,158.5"/>
		<path class="st3" d="M287.9,342.4l0.8,20.6l200,46.4l-4.7-33.5l-104.6-37.2C379.4,338.8,315.6,316.7,287.9,342.4"/>
	</g>
	<g id="book_00000170242483977353076790000004411606100172554144_">
		<path class="st0" d="M1373.1,619.6l81-27.6L1406,874.1l-77.9-52.1c0,0-3.1-73.6,17.5-112.6
			C1366.1,670.5,1373.1,619.6,1373.1,619.6"/>
		<path class="st0" d="M1141.5,907v95.8L1406,874.1l-77.9-52.1c0,0-38.3,0-90.2,30.3C1185.9,882.6,1141.5,907,1141.5,907"/>
		<path class="st5" d="M1147,1044.6l5.7,2.8L1408,910.7l3.7,7.3c0,0,19.5-6.5,37.7-45.9l-8.1-4.5l67.8-292.7l-4.9,2l-68.6,295.9
			l-29.6,1.2l6.1,28l-259.5,139.5L1147,1044.6z"/>
		<path class="st3" d="M1141.5,1002.8l11.1,38.8l259.5-139.5l-6.1-28c0,0-50.7,2.6-103.2,36.1
			C1250.3,943.8,1141.5,1002.8,1141.5,1002.8"/>
		<path class="st3" d="M1406,874.1l29.6-1.2l66.7-287.7l-48.2,6.8l-53.4,150.5C1400.7,742.5,1369.1,834.2,1406,874.1"/>
	</g>
	<g id="book_00000090994722244994097260000010379685459397222072_">
		<path class="st6" d="M1078,285l158.5,169.7l145.1-72.5c0,0,13.2-4.5,28.2-21.1c15-16.6,133.5-107.7,133.5-107.7L1381.5,98.3
			l-135.7,115.6L1078,285z"/>
		<path class="st0" d="M1099.1,261.7l92.8-44.5c0,0,32.2-14.2,44.5-9.7l145.1,150.9l-141.2,69.4L1099.1,261.7z"/>
		<polygon class="st7" points="1088.8,286.2 1236.4,445.5 1242.2,419.1 1099.1,261.7 		"/>
		<path class="st3" d="M1381.5,375.9v-17.4c0,0-21.3-2.6-47.1,11.6c-25.8,14.2-92.2,49-92.2,49l-5.8,26.4L1381.5,375.9z"/>
		<path class="st0" d="M1236.4,207.6c0,0,27.7-52.2,45.8-66.4c18.1-14.2,61.3-45.1,61.3-45.1l163.1,149.6c0,0-96.7,55.2-109.6,79.3
			c-9.7,18.1-15.5,33.5-15.5,33.5L1236.4,207.6z"/>
		<path class="st3" d="M1398.3,361l-16.8-2.6c0,0,0-23.7,31.9-51.1c33.6-28.9,93.2-61.8,93.2-61.8l28.4,7.7L1398.3,361z"/>
		<polygon class="st7" points="1343.5,96 1506.6,245.6 1535,253.4 1381.5,107 		"/>
		<line class="st8" x1="1236.4" y1="207.4" x2="1381.5" y2="358.3"/>
	</g>
	<g id="book_00000172420881490980270680000013540971906904611237_">
		<path class="st6" d="M169.5,990L11,1138l67.7,135.5c0,0,4.2,12.3,19.7,26.3c15.5,14,100.6,124.7,100.6,124.7l144.8-151
			l-107.9-126.8L169.5,990z"/>
		<path class="st0" d="M191.2,1009.7l41.6,86.7c0,0,13.2,30.1,9,41.6l-140.9,135.5l-64.8-131.9L191.2,1009.7z"/>
		<polygon class="st7" points="168.3,1000.1 19.6,1138 44.3,1143.4 191.2,1009.7 		"/>
		<path class="st3" d="M84.6,1273.5h16.3c0,0,2.4-19.9-10.8-44c-13.2-24.1-45.8-86.1-45.8-86.1l-24.7-5.4L84.6,1273.5z"/>
		<path class="st0" d="M241.8,1138c0,0,48.8,25.9,62,42.8c13.2,16.9,42.2,57.2,42.2,57.2l-139.7,152.4c0,0-51.5-90.3-74.1-102.4
			c-16.9-9-31.3-14.5-31.3-14.5L241.8,1138z"/>
		<path class="st3" d="M98.5,1289.2l2.4-15.7c0,0,22.1,0,47.7,29.8c27,31.4,57.7,87,57.7,87l-7.2,26.5L98.5,1289.2z"/>
		<polygon class="st7" points="346,1238 206.3,1390.3 199.1,1416.8 335.8,1273.5 		"/>
		<line class="st8" x1="242" y1="1138" x2="101.1" y2="1273.5"/>
	</g>
	<g id="book_00000033328011232370973280000012165334346982378164_">
		<path class="st9" d="M1235.4,1190.5c0,0-7.2,4.2-10.2,11.9c-12.4,31.7-59.6,182.3-59.6,182.3l243.6,94.2l42.6-194.2L1235.4,1190.5
			z"/>
		<path class="st7" d="M1241,1191.3c0,0-4-4.5-8.5,7.4c-4.5,11.9-55.1,176.6-55.1,176.6l22.1-14.8L1241,1191.3z"/>
		<polygon class="st3" points="1199.6,1360.5 1432.4,1459.3 1408,1467.3 1177.4,1375.3 		"/>
		<polygon class="st0" points="1480.6,1293 1432.4,1459.3 1199.6,1360.5 1241,1191.4 		"/>
		<polygon class="st9" points="1213.2,1347.8 1459.1,1452.2 1481.8,1292.7 1243.9,1190.5 1235.4,1190.5 		"/>
	</g>
	<g id="book_00000078020412081685819760000004887707056936296632_">
		<path class="st9" d="M174.8,900.6c0,0,9,2.4,17.6-1.4c35.1-15.4,192.5-97.6,192.5-97.6L266.1,532.7L77.6,653.4L174.8,900.6z"/>
		<path class="st7" d="M170.9,895.4c0,0-0.5,6.8,12.7,0.9c13.1-5.9,184.4-96.7,184.4-96.7l-29.4-5.9L170.9,895.4z"/>
		<polygon class="st3" points="338.6,793.7 231.9,529.8 257.7,542.9 368,799.6 		"/>
		<polygon class="st0" points="61.1,623.8 231.9,529.8 338.6,793.7 170.9,895.4 		"/>
		<polygon class="st9" points="317.6,793 205.1,514.2 60,623.1 168,893.8 174.8,900.6 		"/>
	</g>
</g>
</svg>
