<?xml version="1.0" encoding="utf-8"?>
<!-- Generator: Adobe Illustrator 25.4.1, SVG Export Plug-In . SVG Version: 6.00 Build 0)  -->
<svg version="1.1" xmlns="http://www.w3.org/2000/svg" xmlns:xlink="http://www.w3.org/1999/xlink" x="0px" y="0px"
	 viewBox="0 0 75 100" style="enable-background:new 0 0 75 100;" xml:space="preserve">
<style type="text/css">
	.st0{fill:#00B56B;stroke:#323232;stroke-miterlimit:10;}
</style>
<g id="圖層_1">
</g>
<g id="location">
	<path id="pin_00000033361506508272075160000012717989470174843291_" class="st0" d="M37.5,7.8C20.7,7.8,7.1,21.4,7.1,38.2
		c0,5.2,1.3,10,3.6,14.3l0.1,0.2l1.5,2.5l0,0l20.6,34.4c2.1,3.5,7.1,3.5,9.2,0l20.6-34.4l0,0l1.6-2.7c2.3-4.2,3.6-9.1,3.6-14.2
		C67.9,21.4,54.3,7.8,37.5,7.8 M37.3,57.4c-10.3,0-18.6-8.3-18.6-18.6c0-10.7,9-19.2,19.8-18.5c9.2,0.6,16.8,8.1,17.3,17.3
		C56.5,48.5,48,57.4,37.3,57.4"/>
</g>
</svg>
