<?xml version="1.0" encoding="utf-8"?>
<!-- Generator: Adobe Illustrator 25.4.1, SVG Export Plug-In . SVG Version: 6.00 Build 0)  -->
<svg version="1.1" id="圖層_1" xmlns="http://www.w3.org/2000/svg" xmlns:xlink="http://www.w3.org/1999/xlink" x="0px" y="0px"
	 viewBox="0 0 480 96" style="enable-background:new 0 0 480 96;" xml:space="preserve">
<style type="text/css">
	.st0{fill:#EC6C00;}
	.st1{fill:#323232;}
</style>
<g>
	<path class="st0" d="M79.3,13.9c-10.5-1.8-22-2.8-34.1-2.8s-23.6,1-34.1,2.8C9.3,24.4,8.3,35.9,8.3,48s1,23.6,2.8,34.1
		c10.5,1.8,22,2.8,34.1,2.8c12.1,0,23.6-1,34.1-2.8c1.8-10.5,2.8-22,2.8-34.1S81.1,24.4,79.3,13.9z M56.6,69.6L39.5,79.8
		c6.9-6.3,7-14.6,4.2-20.3c-2.9-6-9.3-6.7-13.1-7.1c-0.8,0-3.2-0.1-3.2-0.1s1.4-2.2,1.9-4.4c0.5-2.2,0.3-6.3-1.3-9.6
		c-1.8-3.6-6.5-8.6-11.9-9.6L32.5,24c4.1,1,7.5,4.9,9,7.8c1.6,3.3,1.6,7.7,1,10c-0.5,1.7-1,3.3-1,3.3s3.6-0.3,6,0.3
		c2.8,0.7,6.9,2.2,9.7,7.7C60.1,58.6,59.5,64.4,56.6,69.6z M71.9,60.1l-9.4,5.8c3.6-5.7,2.8-13.1,0.4-17.2c-3.1-5.3-8-6.7-11.3-7.2
		c-0.7,0-3-0.1-3-0.1s1-2,1.5-4.6c0.3-2,0-5.5-1.5-8c-1.9-3.1-5.1-5.9-8.7-6.6l11-3c3.4,1,5.8,2.6,7.3,5.5c1.5,3,1.7,5.6,1.2,8.4
		c-0.3,1.6-1.2,3.7-1.2,3.7s3.8-0.1,6,0.4c2.5,0.6,5.9,1.8,8.6,6.9C75.2,49.2,74.3,55.4,71.9,60.1z"/>
	<path class="st1" d="M360.2,40.5c-9.1,0-16.4,7.4-16.4,16.5s7.4,16.5,16.4,16.5c9.1,0,16.4-7.4,16.4-16.5S369.2,40.5,360.2,40.5z
		 M360.6,69.9c-6.5,0-10.9-5.4-10.9-13S353.3,44,359.9,44c6.7,0,10.6,5.3,10.6,12.9C370.5,64.5,367.4,69.9,360.6,69.9z"/>
	<path class="st1" d="M395.4,40.5c-9.1,0-16.4,7.4-16.4,16.5s7.4,16.5,16.4,16.5c9.1,0,16.4-7.4,16.4-16.5S404.5,40.5,395.4,40.5z
		 M395.9,69.9c-6.5,0-10.9-5.4-10.9-13S388.6,44,395.2,44c6.7,0,10.6,5.3,10.6,12.9C405.8,64.5,402.6,69.9,395.9,69.9z"/>
	<g>
		<path class="st1" d="M426.3,58.5c-2.5-3.8-1.9-4.5,0.9-7.6c3-3.2,10.6-10,10.6-10l5.4,0.1c0,0-7.6,7.7-9.6,10.2
			c-2.2,2.8-3.8,3.8-1,7c2.7,3.1,13,13.9,13,13.9h-8.8C433,66.8,428.9,62.5,426.3,58.5z"/>
		<rect x="416" y="26.5" class="st1" width="6.4" height="45.9"/>
	</g>
	<g>
		<g>
			<path class="st1" d="M448.6,72.2l-0.5-3.7c1.7,0.5,6.1,1.5,8.6,1.7s5-0.3,6.4-1.4c1.3-1,2-2.6,2-4c0-1.7-1.1-2.9-2.9-4
				c-0.8-0.5-2.6-1.3-5.9-2.5c-3.4-1.2-5.7-2.4-7.1-3.7c-1.7-1.4-2.5-3.4-2.5-5.4c0-1.7,0.7-4,2-5.4c2.4-2.7,4.7-4,10.1-4
				c3.1,0,5.8,0.8,9.5,2.2l0.3,3.7c-3.1-1.7-6.2-2.4-8.8-2.4c-2.1,0-3.8,0.5-5.1,1.5c-1.1,0.9-1.6,1.9-1.6,3.2s0.6,2.3,1.6,3.2
				c1.1,0.8,3.4,1.7,6.8,3c3.6,1.3,6.3,2.6,7.6,3.9c1.7,1.6,2.7,3.8,2.5,5.9c-0.2,2.3-0.9,4.3-2.4,6c-2.3,2.5-5.6,3.6-11.1,3.6
				C456.1,73.5,450.9,72.8,448.6,72.2z"/>
		</g>
	</g>
	<path class="st1" d="M126.2,72.2c0-5.4-0.1-28.2-0.2-31c-0.1-8,4.5-12.5,9.6-12.5c7.1,0,10.6,4.2,11,9.8c0.5,7.8-3.7,11.2-7.1,11.9
		c-4.5,1-8.3-0.8-8.3-0.8l-0.8,2.9c0,0,1.4,0.8,3.6,1.3c1.9,0.4,2.7,0.2,3.5,0.8c2.4,1.6,11.6,17.6,11.6,17.6h6.9l-12.5-18.7
		c2.5-1,4.6-2.4,6.5-4.9c1.3-1.7,3-5.2,2.6-10.9c-0.5-7.3-7.7-12.7-17.6-12.3c-9.4,0.4-14.8,7.2-14.8,16.9c0,3.3,0.2,24.7,0.2,29.9
		H126.2z"/>
	<g>
		<polygon class="st1" points="107.2,72.3 113.2,72.3 113.2,40.3 113,40.3 107.2,40.3 		"/>
		<path class="st1" d="M110.2,30.3c2,0,3.5-1.6,3.5-3.5s-1.5-3.5-3.5-3.5c-1.9,0-3.5,1.5-3.5,3.5C106.7,28.7,108.3,30.3,110.2,30.3z
			"/>
	</g>
	<path class="st1" d="M189.9,57.5c0,6.5,4.1,12.1,9.3,14.4c2.6,1.2,4.7,1.6,6.6,1.6c1.8,0,3.3-0.4,4.6-0.8h0.2l-0.9-3l-0.2,0.1
		c0,0-0.9,0.3-2.3,0.3c-0.3,0-0.7,0-1.1-0.1c-6.6-0.7-10-7.3-10-12.6c0-5.5,3-12.3,10-12.3c4.8,0,8.1,3.9,8.7,7
		c0.3,1.2,0.4,6.5,0.4,12.4c0,8.3-0.2,8.7-0.2,8.7v0.2h6.1V73c0,0,0.1-13,0.1-18.2c0-6.7-6-14.4-15.1-14.4c0,0,0,0-0.1,0
		C196.3,40.5,190,49,189.9,57.5z"/>
	<path class="st1" d="M226.3,56.5c0-6.5,4.1-12.1,9.3-14.4c2.6-1.2,4.7-1.6,6.6-1.6c1.8,0,3.3,0.4,4.6,0.8h0.2l-0.9,3l-0.2-0.1
		c0,0-0.9-0.3-2.3-0.3c-0.3,0-0.7,0-1.1,0.1c-6.6,0.7-10,7.3-10,12.6c0,5.5,3,12.3,10,12.3c4.8,0,8.1-3.9,8.7-7
		c0.3-1.2,0.4-6.5,0.4-12.4c0-8.3-0.2-23.4-0.2-23.4v-0.2h6.1v0.2c0,0,0.1,27.8,0.1,32.9c0,6.7-6,14.4-15.1,14.4c0,0,0,0-0.1,0
		C232.7,73.5,226.3,65,226.3,56.5z"/>
	<path class="st1" d="M175.3,69.6c-5-0.5-9.9-4.3-11.1-9.5c-1.2-5.2,0.2-9.6,2.6-11.8c2.1-2,4.5-3,7.9-2.5c2.6,0.4,4.8,2.7,5.3,3.7
		l-9.7,8l1.3,3.1l14.6-11.1l-0.1-0.1c0,0-4.3-9-13.6-8.4c-9.9,0.6-15,8-14.6,16.8c0.4,9.4,8,14.9,15.2,15.6
		c7.6,0.7,12.8-3.6,13.5-4.7l-2.1-2.5C184.5,66.2,180.7,70.2,175.3,69.6z"/>
	<path class="st1" d="M290.1,69.6c-5-0.5-9.9-4.3-11.1-9.5s0.2-9.6,2.6-11.8c2.1-2,4.5-3,7.9-2.5c2.6,0.4,4.8,2.7,5.3,3.7l-9.7,8
		l1.3,3.1L301,49.5l-0.1-0.1c0,0-4.3-9-13.6-8.4c-9.9,0.6-15,8-14.6,16.8c0.4,9.4,8,14.9,15.2,15.6c7.6,0.7,12.8-3.6,13.5-4.7
		l-2.1-2.5C299.3,66.2,295.5,70.2,290.1,69.6z"/>
	<path class="st1" d="M330.6,47.6c0.8-0.5,1.7-1.4,2.3-2.2c1.2-1.5,2.4-4.1,2.1-9.1c-0.4-6.4-7-11.3-16-10.9
		c-8.5,0.4-13.4,6.4-13.4,15c0,2.9,0.1,27.8,0.2,32.4h5.6c0-4.8-0.1-30.6-0.2-33.1c-0.1-7.1,3.7-11.4,8.3-11.4
		c6.5,0,9.6,3.7,9.9,8.7c0.3,4.7-1.8,6.8-3,7.7c-1.9,1.5-4.5,1.8-6.7,1.8c-0.9,0-3.2,0.1-3.2,0.1l-1.5,3.9c0,0,5-0.5,7.3-0.5
		c7.6,0.3,10.4,4.7,10.5,9.7c0.1,5.6-3.6,10.1-11.5,9.9c-1.8,0-4.8-0.7-4.8-0.7l-1.4,3.1c3.6,1,8.7,1.5,13.3,0.4
		c6.6-1.6,10.3-7,10.5-12.5C339.1,54.9,336.1,49.4,330.6,47.6z"/>
</g>
</svg>
