<?xml version="1.0" encoding="utf-8"?>
<!-- Generator: Adobe Illustrator 25.4.1, SVG Export Plug-In . SVG Version: 6.00 Build 0)  -->
<svg version="1.1" xmlns="http://www.w3.org/2000/svg" xmlns:xlink="http://www.w3.org/1999/xlink" x="0px" y="0px"
	 viewBox="0 0 75 100" style="enable-background:new 0 0 75 100;" xml:space="preserve">
<style type="text/css">
	.st0{fill:#ED6C00;stroke:#323232;stroke-miterlimit:10;}
</style>
<g id="圖層_1">
</g>
<g id="location">
	<path id="pin_00000165225468239323424550000002851333500397177485_" class="st0" d="M37.5,13.5c-14.5,0-26.3,11.8-26.3,26.3
		c0,4.5,1.1,8.7,3.1,12.4l0.1,0.2l1.3,2.2l0,0l17.8,29.8c1.8,3,6.1,3,7.9,0l17.8-29.7l0,0l1.4-2.4c2-3.7,3.1-7.9,3.1-12.3
		C63.8,25.3,52,13.5,37.5,13.5 M37.4,56.4c-8.9,0-16.1-7.2-16.1-16.1c0-9.2,7.8-16.6,17.1-16c8,0.5,14.5,7,15,15
		C54,48.7,46.6,56.4,37.4,56.4"/>
</g>
</svg>
