<?xml version="1.0" encoding="utf-8"?>
<!-- Generator: Adobe Illustrator 25.4.1, SVG Export Plug-In . SVG Version: 6.00 Build 0)  -->
<svg version="1.1" xmlns="http://www.w3.org/2000/svg" xmlns:xlink="http://www.w3.org/1999/xlink" x="0px" y="0px"
	 viewBox="0 0 75 100" style="enable-background:new 0 0 75 100;" xml:space="preserve">
<style type="text/css">
	.st0{fill:#ED6CBA;stroke:#323232;stroke-miterlimit:10;}
</style>
<g id="圖層_1">
</g>
<g id="location">
	<path id="pin_00000020373152772914854920000002211202630277101713_" class="st0" d="M37.5,8.3C20.9,8.3,7.5,21.7,7.5,38.3
		c0,5.1,1.3,9.9,3.5,14.1l0.1,0.2l1.5,2.5l0,0l20.4,34c2.1,3.4,7,3.4,9.1,0l20.4-34l0,0l1.6-2.7c2.2-4.2,3.5-9,3.5-14.1
		C67.5,21.7,54.1,8.3,37.5,8.3 M37.3,57.4C27.2,57.4,19,49.1,19,39c0-10.6,8.9-19,19.6-18.3c9.1,0.6,16.6,8,17.2,17.2
		C56.3,48.5,47.9,57.4,37.3,57.4"/>
</g>
</svg>
